<?xml version="1.0" standalone="no"?>
<!DOCTYPE svg PUBLIC "-//W3C//DTD SVG 20010904//EN"
 "http://www.w3.org/TR/2001/REC-SVG-20010904/DTD/svg10.dtd">
<svg version="1.0" xmlns="http://www.w3.org/2000/svg"
 width="145.000000pt" height="145.000000pt" viewBox="0 0 145.000000 145.000000"
 preserveAspectRatio="xMidYMid meet">
<metadata>
Created by potrace 1.11, written by Peter Selinger 2001-2013
</metadata>
<g transform="translate(0.000000,145.000000) scale(0.100000,-0.100000)"
fill="#000000" stroke="none">
<path d="M1054 1307 c-89 -47 -143 -115 -175 -216 -42 -138 -27 -261 38 -294
26 -14 34 -13 78 2 28 10 64 25 81 34 41 21 110 97 129 143 44 106 8 286 -68
339 -28 19 -34 19 -83 -8z"/>
<path d="M37 923 c-11 -10 13 -33 35 -33 21 0 102 -72 150 -133 l31 -38 -37
25 c-20 13 -58 32 -84 41 -58 21 -61 23 -92 40 -16 9 -28 11 -34 5 -14 -14 4
-29 39 -34 41 -5 152 -53 190 -82 18 -13 35 -24 39 -24 18 0 -54 107 -97 144
-27 22 -62 53 -79 69 -31 27 -49 33 -61 20z"/>
<path d="M867 678 l-69 -32 8 -45 c18 -109 0 -221 -52 -323 l-24 -47 70 -46
c39 -25 74 -45 79 -45 10 0 55 89 76 150 43 123 48 243 15 349 -13 39 -26 71
-29 71 -3 0 -37 -15 -74 -32z"/>
<path d="M370 684 c-57 -17 -115 -64 -141 -116 -11 -22 -18 -42 -16 -44 2 -3
17 0 32 6 33 12 55 7 55 -13 0 -24 -30 -41 -66 -39 -22 2 -34 -2 -35 -10 -9
-93 6 -148 47 -167 66 -29 187 2 250 64 46 47 64 100 59 175 -9 115 -84 173
-185 144z"/>
<path d="M1031 673 c20 -53 36 -162 34 -226 -4 -80 -27 -161 -71 -249 -18 -38
-31 -68 -29 -68 19 0 141 66 191 103 121 89 143 150 89 244 -35 58 -125 155
-182 195 l-43 29 11 -28z"/>
<path d="M658 603 c-53 -24 -57 -28 -51 -52 13 -54 6 -119 -19 -170 l-25 -50
49 -31 c27 -16 53 -30 58 -30 11 0 59 117 68 170 5 25 8 65 7 90 -4 117 0 113
-87 73z"/>
<path d="M1325 360 c-1 -33 2 -38 20 -34 11 2 35 5 53 6 17 1 32 4 32 8 0 3
-24 17 -52 32 l-53 25 0 -37z"/>
</g>
</svg>
