<svg width="1286" height="684" viewBox="0 0 1286 684" fill="none" xmlns="http://www.w3.org/2000/svg">
<path d="M1288.23 0L1367.47 45.7565V137.269L1288.23 183.026L1209 137.269V45.7565L1288.23 0Z" fill="white" fill-opacity="0.02"/>
<path d="M1288.23 277.695L1367.47 323.451V414.964L1288.23 460.72L1209 414.964V323.451L1288.23 277.695Z" fill="white" fill-opacity="0.02"/>
<path d="M1288.23 555.389L1367.47 601.146V692.658L1288.23 738.415L1209 692.658V601.146L1288.23 555.389Z" fill="white" fill-opacity="0.02"/>
<path d="M89.3875 321.873L10.1542 276.117L10.1542 184.604L89.3875 138.847L168.621 184.604L168.621 276.117L89.3875 321.873Z" fill="white" fill-opacity="0.02"/>
<path d="M89.3875 599.568L10.1542 553.811L10.1542 462.298L89.3875 416.542L168.621 462.298L168.621 553.811L89.3875 599.568Z" fill="white" fill-opacity="0.02"/>
<path d="M968.54 0L1047.77 45.7565V137.269L968.54 183.026L889.307 137.269V45.7565L968.54 0Z" fill="white" fill-opacity="0.03"/>
<path d="M968.54 277.695L1047.77 323.451V414.964L968.54 460.72L889.307 414.964V323.451L968.54 277.695Z" fill="white" fill-opacity="0.03"/>
<path d="M968.54 555.389L1047.77 601.146V692.658L968.54 738.415L889.307 692.658V601.146L968.54 555.389Z" fill="white" fill-opacity="0.03"/>
<path d="M409.079 321.873L329.846 276.117L329.846 184.604L409.079 138.847L488.313 184.604L488.313 276.117L409.079 321.873Z" fill="white" fill-opacity="0.05"/>
<path d="M409.079 599.568L329.846 553.811L329.846 462.298L409.079 416.542L488.313 462.298L488.313 553.811L409.079 599.568Z" fill="white" fill-opacity="0.01"/>
<path d="M648.848 0L728.081 45.7565V137.269L648.848 183.026L569.615 137.269V45.7565L648.848 0Z" fill="white" fill-opacity="0.03"/>
<path d="M648.848 277.695L728.081 323.451V414.964L648.848 460.72L569.615 414.964V323.451L648.848 277.695Z" fill="white" fill-opacity="0.03"/>
<path d="M648.848 555.389L728.081 601.146V692.658L648.848 738.415L569.615 692.658V601.146L648.848 555.389Z" fill="white" fill-opacity="0.03"/>
<path d="M728.771 321.873L649.538 276.117L649.538 184.604L728.771 138.847L808.005 184.604L808.005 276.117L728.771 321.873Z" fill="white" fill-opacity="0.08"/>
<path opacity="0.13" d="M728.771 599.568L649.538 553.811L649.538 462.298L728.771 416.542L808.005 462.298L808.005 553.811L728.771 599.568Z" fill="#FFAB00"/>
<path d="M329.156 0L408.39 45.7565V137.269L329.156 183.026L249.923 137.269V45.7565L329.156 0Z" fill="white" fill-opacity="0.02"/>
<path d="M329.156 277.695L408.39 323.451V414.964L329.156 460.72L249.923 414.964V323.451L329.156 277.695Z" fill="white" fill-opacity="0.02"/>
<path d="M329.156 555.389L408.39 601.146V692.658L329.156 738.415L249.923 692.658V601.146L329.156 555.389Z" fill="white" fill-opacity="0.02"/>
<path d="M1048.46 321.873L969.23 276.117L969.23 184.604L1048.46 138.847L1127.7 184.604L1127.7 276.117L1048.46 321.873Z" fill="white" fill-opacity="0.04"/>
<path d="M1048.46 599.568L969.23 553.811L969.23 462.298L1048.46 416.542L1127.7 462.298L1127.7 553.811L1048.46 599.568Z" fill="white" fill-opacity="0.02"/>
<path d="M1128.39 0L1207.62 45.7565V137.269L1128.39 183.026L1049.15 137.269V45.7565L1128.39 0Z" fill="white" fill-opacity="0.07"/>
<path d="M1128.39 277.695L1207.62 323.451V414.964L1128.39 460.72L1049.15 414.964V323.451L1128.39 277.695Z" fill="white" fill-opacity="0.01"/>
<path opacity="0.15" d="M1128.39 555.389L1207.62 601.146V692.658L1128.39 738.415L1049.15 692.658V601.146L1128.39 555.389Z" fill="#FFAB00"/>
<path d="M249.233 321.873L170 276.117L170 184.604L249.233 138.847L328.467 184.604L328.467 276.117L249.233 321.873Z" fill="white" fill-opacity="0.07"/>
<path d="M249.233 599.568L170 553.811L170 462.298L249.233 416.542L328.467 462.298L328.467 553.811L249.233 599.568Z" fill="white" fill-opacity="0.07"/>
<path d="M808.694 0L887.927 45.7565V137.269L808.694 183.026L729.461 137.269V45.7565L808.694 0Z" fill="white" fill-opacity="0.06"/>
<path d="M808.694 277.695L887.927 323.451V414.964L808.694 460.72L729.461 414.964V323.451L808.694 277.695Z" fill="white" fill-opacity="0.06"/>
<path d="M808.694 555.389L887.927 601.146V692.658L808.694 738.415L729.461 692.658V601.146L808.694 555.389Z" fill="white" fill-opacity="0.06"/>
<path d="M568.925 321.873L489.692 276.117L489.692 184.604L568.925 138.847L648.159 184.604L648.159 276.117L568.925 321.873Z" fill="white" fill-opacity="0.03"/>
<path d="M568.925 599.568L489.692 553.811L489.692 462.298L568.925 416.542L648.159 462.298L648.159 553.811L568.925 599.568Z" fill="white" fill-opacity="0.06"/>
<path d="M489.002 0L568.236 45.7565V137.269L489.002 183.026L409.769 137.269V45.7565L489.002 0Z" fill="white" fill-opacity="0.07"/>
<path d="M489.002 277.695L568.236 323.451V414.964L489.002 460.72L409.769 414.964V323.451L489.002 277.695Z" fill="white" fill-opacity="0.07"/>
<path d="M489.002 555.389L568.236 601.146V692.658L489.002 738.415L409.769 692.658V601.146L489.002 555.389Z" fill="white" fill-opacity="0.07"/>
<path d="M888.617 321.873L809.384 276.117L809.384 184.604L888.617 138.847L967.85 184.604L967.85 276.117L888.617 321.873Z" fill="white" fill-opacity="0.05"/>
<path d="M888.617 599.568L809.384 553.811L809.384 462.298L888.617 416.542L967.85 462.298L967.85 553.811L888.617 599.568Z" fill="white" fill-opacity="0.07"/>
<path d="M169.31 0L248.544 45.7565V137.269L169.31 183.026L90.0771 137.269V45.7565L169.31 0Z" fill="white" fill-opacity="0.05"/>
<path d="M169.31 277.695L248.544 323.451V414.964L169.31 460.72L90.0771 414.964V323.451L169.31 277.695Z" fill="white" fill-opacity="0.05"/>
<path d="M169.31 555.389L248.544 601.146V692.658L169.31 738.415L90.0771 692.658V601.146L169.31 555.389Z" fill="white" fill-opacity="0.05"/>
<path d="M1208.31 321.873L1129.08 276.117L1129.08 184.604L1208.31 138.847L1287.54 184.604L1287.54 276.117L1208.31 321.873Z" fill="white" fill-opacity="0.09"/>
<path d="M1208.31 599.568L1129.08 553.811L1129.08 462.298L1208.31 416.542L1287.54 462.298L1287.54 553.811L1208.31 599.568Z" fill="white" fill-opacity="0.05"/>
</svg>
