<svg width="72" height="72" viewBox="0 0 72 72" fill="none" xmlns="http://www.w3.org/2000/svg">
<circle cx="68.7273" cy="3.27273" r="3.27273" transform="rotate(90 68.7273 3.27273)" fill="#1D1D1D"/>
<circle cx="42.5456" cy="3.27273" r="3.27273" transform="rotate(90 42.5456 3.27273)" fill="#1D1D1D"/>
<circle cx="16.364" cy="3.27273" r="3.27273" transform="rotate(90 16.364 3.27273)" fill="#1D1D1D"/>
<circle cx="55.6365" cy="3.27273" r="3.27273" transform="rotate(90 55.6365 3.27273)" fill="#1D1D1D"/>
<circle cx="29.4548" cy="3.27273" r="3.27273" transform="rotate(90 29.4548 3.27273)" fill="#1D1D1D"/>
<circle cx="3.27317" cy="3.27273" r="3.27273" transform="rotate(90 3.27317 3.27273)" fill="#1D1D1D"/>
<circle cx="68.7273" cy="55.6364" r="3.27273" transform="rotate(90 68.7273 55.6364)" fill="#1D1D1D"/>
<circle cx="42.5456" cy="55.6364" r="3.27273" transform="rotate(90 42.5456 55.6364)" fill="#1D1D1D"/>
<circle cx="16.364" cy="55.6364" r="3.27273" transform="rotate(90 16.364 55.6364)" fill="#1D1D1D"/>
<circle cx="55.6365" cy="55.6364" r="3.27273" transform="rotate(90 55.6365 55.6364)" fill="#1D1D1D"/>
<circle cx="29.4548" cy="55.6364" r="3.27273" transform="rotate(90 29.4548 55.6364)" fill="#1D1D1D"/>
<circle cx="3.27317" cy="55.6364" r="3.27273" transform="rotate(90 3.27317 55.6364)" fill="#1D1D1D"/>
<circle cx="68.7273" cy="29.4546" r="3.27273" transform="rotate(90 68.7273 29.4546)" fill="#1D1D1D"/>
<circle cx="42.5456" cy="29.4546" r="3.27273" transform="rotate(90 42.5456 29.4546)" fill="#1D1D1D"/>
<circle cx="16.364" cy="29.4546" r="3.27273" transform="rotate(90 16.364 29.4546)" fill="#1D1D1D"/>
<circle cx="55.6365" cy="29.4546" r="3.27273" transform="rotate(90 55.6365 29.4546)" fill="#1D1D1D"/>
<circle cx="29.4548" cy="29.4546" r="3.27273" transform="rotate(90 29.4548 29.4546)" fill="#1D1D1D"/>
<circle cx="3.27317" cy="29.4546" r="3.27273" transform="rotate(90 3.27317 29.4546)" fill="#1D1D1D"/>
<circle cx="68.7273" cy="16.3636" r="3.27273" transform="rotate(90 68.7273 16.3636)" fill="#1D1D1D"/>
<circle cx="42.5456" cy="16.3636" r="3.27273" transform="rotate(90 42.5456 16.3636)" fill="#1D1D1D"/>
<circle cx="16.364" cy="16.3636" r="3.27273" transform="rotate(90 16.364 16.3636)" fill="#1D1D1D"/>
<circle cx="55.6365" cy="16.3636" r="3.27273" transform="rotate(90 55.6365 16.3636)" fill="#1D1D1D"/>
<circle cx="29.4548" cy="16.3636" r="3.27273" transform="rotate(90 29.4548 16.3636)" fill="#1D1D1D"/>
<circle cx="3.27317" cy="16.3636" r="3.27273" transform="rotate(90 3.27317 16.3636)" fill="#1D1D1D"/>
<circle cx="68.7273" cy="68.7273" r="3.27273" transform="rotate(90 68.7273 68.7273)" fill="#1D1D1D"/>
<circle cx="42.5456" cy="68.7273" r="3.27273" transform="rotate(90 42.5456 68.7273)" fill="#1D1D1D"/>
<circle cx="16.364" cy="68.7273" r="3.27273" transform="rotate(90 16.364 68.7273)" fill="#1D1D1D"/>
<circle cx="55.6365" cy="68.7273" r="3.27273" transform="rotate(90 55.6365 68.7273)" fill="#1D1D1D"/>
<circle cx="29.4548" cy="68.7273" r="3.27273" transform="rotate(90 29.4548 68.7273)" fill="#1D1D1D"/>
<circle cx="3.27317" cy="68.7273" r="3.27273" transform="rotate(90 3.27317 68.7273)" fill="#1D1D1D"/>
<circle cx="68.7273" cy="42.5454" r="3.27273" transform="rotate(90 68.7273 42.5454)" fill="#1D1D1D"/>
<circle cx="42.5456" cy="42.5454" r="3.27273" transform="rotate(90 42.5456 42.5454)" fill="#1D1D1D"/>
<circle cx="16.364" cy="42.5454" r="3.27273" transform="rotate(90 16.364 42.5454)" fill="#1D1D1D"/>
<circle cx="55.6365" cy="42.5454" r="3.27273" transform="rotate(90 55.6365 42.5454)" fill="#1D1D1D"/>
<circle cx="29.4548" cy="42.5454" r="3.27273" transform="rotate(90 29.4548 42.5454)" fill="#1D1D1D"/>
<circle cx="3.27317" cy="42.5454" r="3.27273" transform="rotate(90 3.27317 42.5454)" fill="#1D1D1D"/>
</svg>
