<svg width="603" height="328" viewBox="0 0 603 328" fill="none" xmlns="http://www.w3.org/2000/svg">
<path d="M448.865 -12L511.845 24.3545V97.0634L448.865 133.418L385.885 97.0634V24.3545L448.865 -12Z" fill="white" fill-opacity="0.03"/>
<path d="M448.865 208.634L511.845 244.989V317.697L448.865 354.052L385.885 317.697V244.989L448.865 208.634Z" fill="white" fill-opacity="0.12"/>
<path d="M4.16525 243.735L-58.8151 207.38L-58.8151 134.671L4.16523 98.317L67.1456 134.671L67.1456 207.38L4.16525 243.735Z" fill="white" fill-opacity="0.1"/>
<path d="M4.16525 464.369L-58.8151 428.014L-58.8151 355.306L4.16523 318.951L67.1456 355.305L67.1456 428.014L4.16525 464.369Z" fill="white" fill-opacity="0.01"/>
<path d="M194.751 -12L257.731 24.3545V97.0634L194.751 133.418L131.77 97.0634V24.3545L194.751 -12Z" fill="white" fill-opacity="0.12"/>
<path d="M194.751 208.634L257.731 244.989V317.697L194.751 354.052L131.77 317.697V244.989L194.751 208.634Z" fill="white" fill-opacity="0.12"/>
<path opacity="0.15" d="M258.28 243.735L195.299 207.38L195.299 134.671L258.28 98.317L321.26 134.671L321.26 207.38L258.28 243.735Z" fill="#FFAB00"/>
<path d="M258.28 464.369L195.299 428.014L195.299 355.306L258.28 318.951L321.26 355.305L321.26 428.014L258.28 464.369Z" fill="white" fill-opacity="0.01"/>
<path d="M-59.3625 -12L3.61783 24.3545V97.0634L-59.3625 133.418L-122.343 97.0634V24.3545L-59.3625 -12Z" fill="white" fill-opacity="0.02"/>
<path d="M-59.3625 208.634L3.61783 244.989V317.697L-59.3625 354.052L-122.343 317.697V244.989L-59.3625 208.634Z" fill="white" fill-opacity="0.02"/>
<path d="M512.394 243.735L449.413 207.38L449.413 134.671L512.394 98.317L575.374 134.671L575.374 207.38L512.394 243.735Z" fill="white" fill-opacity="0.1"/>
<path d="M512.394 464.369L449.413 428.014L449.413 355.306L512.394 318.951L575.374 355.305L575.374 428.014L512.394 464.369Z" fill="white" fill-opacity="0.02"/>
<path d="M575.923 -12L638.903 24.3545V97.0634L575.923 133.418L512.942 97.0634V24.3545L575.923 -12Z" fill="white" fill-opacity="0.16"/>
<path d="M575.923 208.634L638.903 244.989V317.697L575.923 354.052L512.942 317.697V244.989L575.923 208.634Z" fill="white" fill-opacity="0.13"/>
<path d="M321.808 -12L384.789 24.3545V97.0634L321.808 133.418L258.828 97.0634V24.3545L321.808 -12Z" fill="white" fill-opacity="0.06"/>
<path opacity="0.25" d="M321.808 208.634L384.789 244.989V317.697L321.808 354.052L258.828 317.697V244.989L321.808 208.634Z" fill="#FFAB00"/>
<path d="M131.223 243.735L68.2426 207.38L68.2425 134.671L131.223 98.317L194.203 134.671L194.203 207.38L131.223 243.735Z" fill="white" fill-opacity="0.12"/>
<path d="M131.223 464.369L68.2426 428.014L68.2425 355.306L131.223 318.951L194.203 355.305L194.203 428.014L131.223 464.369Z" fill="white" fill-opacity="0.06"/>
<path d="M67.6941 -12L130.674 24.3545V97.0634L67.6941 133.418L4.71379 97.0634V24.3545L67.6941 -12Z" fill="white" fill-opacity="0.07"/>
<path d="M67.6941 208.634L130.674 244.989V317.697L67.6941 354.052L4.71379 317.697V244.989L67.6941 208.634Z" fill="white" fill-opacity="0.24"/>
<path d="M385.337 243.735L322.357 207.38L322.357 134.671L385.337 98.317L448.317 134.671L448.317 207.38L385.337 243.735Z" fill="white" fill-opacity="0.05"/>
<path d="M385.337 464.369L322.357 428.014L322.357 355.306L385.337 318.951L448.317 355.305L448.317 428.014L385.337 464.369Z" fill="white" fill-opacity="0.07"/>
<path d="M639.45 243.735L576.47 207.38L576.47 134.671L639.45 98.317L702.431 134.671L702.431 207.38L639.45 243.735Z" fill="white" fill-opacity="0.07"/>
<path d="M639.45 464.369L576.47 428.014L576.47 355.306L639.45 318.951L702.431 355.305L702.431 428.014L639.45 464.369Z" fill="white" fill-opacity="0.05"/>
</svg>
