<svg width="186" height="283" viewBox="0 0 186 283" fill="none" xmlns="http://www.w3.org/2000/svg">
<path d="M-117.922 38.1513C-117.922 32.4351 -114.873 27.1531 -109.922 24.295L-8.00851 -34.5451C-3.0581 -37.4032 3.04106 -37.4032 7.99148 -34.5451L109.905 24.2949C114.856 27.1531 117.905 32.4351 117.905 38.1513L117.905 155.831C117.905 161.548 114.856 166.83 109.905 169.688L7.99149 228.528C3.04106 231.386 -3.0581 231.386 -8.00852 228.528L-109.922 169.688C-114.873 166.83 -117.922 161.548 -117.922 155.831L-117.922 38.1513Z" fill="white" fill-opacity="0.05"/>
<path d="M-85.7483 56.7273C-85.7483 51.011 -82.6988 45.729 -77.7483 42.8709L-8.00851 2.60655C-3.05809 -0.251571 3.04107 -0.251569 7.99148 2.60655L77.7313 42.8709C82.6817 45.729 85.7313 51.011 85.7313 56.7273L85.7313 137.256C85.7313 142.972 82.6817 148.254 77.7313 151.112L7.99147 191.377C3.04106 194.235 -3.0581 194.235 -8.00852 191.377L-77.7483 151.112C-82.6988 148.254 -85.7483 142.972 -85.7483 137.256L-85.7483 56.7273Z" fill="white" fill-opacity="0.05"/>
</svg>
